HIERARCHY
ROOT hip
{
  OFFSET 47.9395 61.9578 -24.9257
  CHANNELS 6 Xposition Yposition Zposition Zrotation Xrotation Yrotation
  JOINT abdomen
  {
    OFFSET 0 20.6881 -0.73152
    CHANNELS 3 Zrotation Xrotation Yrotation
    JOINT chest
    {
      OFFSET 0 11.7043 -0.48768
      CHANNELS 3 Zrotation Xrotation Yrotation
      JOINT neck
      {
        OFFSET 0 22.1894 -2.19456
        CHANNELS 3 Zrotation Xrotation Yrotation
        JOINT head
        {
          OFFSET -0.24384 7.07133 1.2192
          CHANNELS 3 Zrotation Xrotation Yrotation
          JOINT leftEye
          {
            OFFSET 4.14528 8.04674 8.04672
            CHANNELS 3 Zrotation Xrotation Yrotation
            End Site
            {
              OFFSET 1 0 0
            }
          }
          JOINT rightEye
          {
            OFFSET -3.6576 8.04674 8.04672
            CHANNELS 3 Zrotation Xrotation Yrotation
            End Site
            {
              OFFSET 1 0 0
            }
          }
        }
      }
      JOINT rCollar
      {
        OFFSET -2.68224 19.2634 -4.8768
        CHANNELS 3 Zrotation Xrotation Yrotation
        JOINT rShldr
        {
          OFFSET -8.77824 -1.95073 1.46304
          CHANNELS 3 Zrotation Xrotation Yrotation
          JOINT rForeArm
          {
            OFFSET -28.1742 -1.7115 0.48768
            CHANNELS 3 Zrotation Xrotation Yrotation
            JOINT rHand
            {
              OFFSET -22.5879 0.773209 7.07136
              CHANNELS 3 Zrotation Xrotation Yrotation
              JOINT rThumb1
              {
                OFFSET -1.2192 -0.487915 3.41376
                CHANNELS 3 Zrotation Xrotation Yrotation
                JOINT rThumb2
                {
                  OFFSET -3.37035 -0.52449 3.41376
                  CHANNELS 3 Zrotation Xrotation Yrotation
                  End Site
                  {
                    OFFSET -1.78271 -1.18214 1.43049
                  }
                }
              }
              JOINT rIndex1
              {
                OFFSET -7.75947 0.938293 5.60832
                CHANNELS 3 Zrotation Xrotation Yrotation
                JOINT rIndex2
                {
                  OFFSET -2.54057 -0.884171 1.56538
                  CHANNELS 3 Zrotation Xrotation Yrotation
                  End Site
                  {
                    OFFSET -1.62519 -0.234802 1.16502
                  }
                }
              }
              JOINT rMid1
              {
                OFFSET -8.24714 1.18213 3.41376
                CHANNELS 3 Zrotation Xrotation Yrotation
                JOINT rMid2
                {
                  OFFSET -3.10165 -0.590103 1.0647
                  CHANNELS 3 Zrotation Xrotation Yrotation
                  End Site
                  {
                    OFFSET -2.48547 -0.328903 0.83742
                  }
                }
              }
              JOINT rRing1
              {
                OFFSET -8.82822 0.546677 1.51678
                CHANNELS 3 Zrotation Xrotation Yrotation
                JOINT rRing2
                {
                  OFFSET -2.60934 -0.819778 -0.0198488
                  CHANNELS 3 Zrotation Xrotation Yrotation
                  End Site
                  {
                    OFFSET -2.33842 -0.294052 0.168128
                  }
                }
              }
              JOINT rPinky1
              {
                OFFSET -8.27202 -0.0477905 -0.4584
                CHANNELS 3 Zrotation Xrotation Yrotation
                JOINT rPinky2
                {
                  OFFSET -1.82734 -0.647385 -0.700984
                  CHANNELS 3 Zrotation Xrotation Yrotation
                  End Site
                  {
                    OFFSET -1.69225 -0.51767 -0.607171
                  }
                }
              }
            }
          }
        }
      }
      JOINT lCollar
      {
        OFFSET 2.68224 19.2634 -4.8768
        CHANNELS 3 Zrotation Xrotation Yrotation
        JOINT lShldr
        {
          OFFSET 8.77824 -1.95073 1.46304
          CHANNELS 3 Zrotation Xrotation Yrotation
          JOINT lForeArm
          {
            OFFSET 28.1742 -1.7115 0.48768
            CHANNELS 3 Zrotation Xrotation Yrotation
            JOINT lHand
            {
              OFFSET 22.5879 0.773209 7.07136
              CHANNELS 3 Zrotation Xrotation Yrotation
              JOINT lThumb1
              {
                OFFSET 1.2192 -0.487915 3.41376
                CHANNELS 3 Zrotation Xrotation Yrotation
                JOINT lThumb2
                {
                  OFFSET 3.37035 -0.52449 3.41376
                  CHANNELS 3 Zrotation Xrotation Yrotation
                  End Site
                  {
                    OFFSET 1.78271 -1.18214 1.43049
                  }
                }
              }
              JOINT lIndex1
              {
                OFFSET 7.75947 0.938293 5.60832
                CHANNELS 3 Zrotation Xrotation Yrotation
                JOINT lIndex2
                {
                  OFFSET 2.54057 -0.884171 1.56538
                  CHANNELS 3 Zrotation Xrotation Yrotation
                  End Site
                  {
                    OFFSET 1.62519 -0.234802 1.16502
                  }
                }
              }
              JOINT lMid1
              {
                OFFSET 8.24714 1.18213 3.41376
                CHANNELS 3 Zrotation Xrotation Yrotation
                JOINT lMid2
                {
                  OFFSET 3.10165 -0.590103 1.0647
                  CHANNELS 3 Zrotation Xrotation Yrotation
                  End Site
                  {
                    OFFSET 2.48547 -0.328903 0.83742
                  }
                }
              }
              JOINT lRing1
              {
                OFFSET 8.82822 0.546677 1.51678
                CHANNELS 3 Zrotation Xrotation Yrotation
                JOINT lRing2
                {
                  OFFSET 2.60934 -0.819778 -0.0198488
                  CHANNELS 3 Zrotation Xrotation Yrotation
                  End Site
                  {
                    OFFSET 2.33842 -0.294052 0.168128
                  }
                }
              }
              JOINT lPinky1
              {
                OFFSET 8.27202 -0.0477905 -0.4584
                CHANNELS 3 Zrotation Xrotation Yrotation
                JOINT lPinky2
                {
                  OFFSET 1.82734 -0.647385 -0.700984
                  CHANNELS 3 Zrotation Xrotation Yrotation
                  End Site
                  {
                    OFFSET 1.69225 -0.51767 -0.607171
                  }
                }
              }
            }
          }
        }
      }
    }
  }
  JOINT rButtock
  {
    OFFSET -8.77824 4.35084 1.2192
    CHANNELS 3 Zrotation Xrotation Yrotation
    JOINT rThigh
    {
      OFFSET 0 -1.70687 -2.19456
      CHANNELS 3 Zrotation Xrotation Yrotation
      JOINT rShin
      {
        OFFSET 0 -36.8199 0.73152
        CHANNELS 3 Zrotation Xrotation Yrotation
        JOINT rFoot
        {
          OFFSET 0.73152 -45.1104 -5.12064
          CHANNELS 3 Zrotation Xrotation Yrotation
          End Site
          {
            OFFSET -1.1221 -3.69964 12.103
          }
        }
      }
    }
  }
  JOINT lButtock
  {
    OFFSET 8.77824 4.35084 1.2192
    CHANNELS 3 Zrotation Xrotation Yrotation
    JOINT lThigh
    {
      OFFSET 0 -1.70687 -2.19456
      CHANNELS 3 Zrotation Xrotation Yrotation
      JOINT lShin
      {
        OFFSET 0 -36.8199 0.73152
        CHANNELS 3 Zrotation Xrotation Yrotation
        JOINT lFoot
        {
          OFFSET -0.73152 -45.1104 -5.12064
          CHANNELS 3 Zrotation Xrotation Yrotation
          End Site
          {
            OFFSET 1.1221 -3.69964 12.103
          }
        }
      }
    }
  }
}
MOTION
Frames:	9
Frame Time:	0.00833333
47.4814 62.3928 -24.3224 10.2045 -0.370753 -87.6209 0.435352 20.413 -3.45984 -1.96607 -11.1308 -1.10567 2.63383 2.41692 0.421287 0.604907 -30.834 0.0928758 -0 0 0 -0 0 0 -8.93223e-016 -3.91141e-012 -1.17708e-013 35.9877 7.84715 53.712 -27.0527 -26.515 61.7009 -0.400981 17.7139 2.57286 -4.9206e-010 7.77803e-010 1.70535e-009 -8.29849e-010 1.33722e-009 2.95445e-009 -4.92057e-010 7.77804e-010 1.70535e-009 7.73091 5.47488 0.417314 -4.92061e-010 7.77803e-010 1.70536e-009 2.90554 0.965183 0.102902 -4.92053e-010 7.77804e-010 1.70536e-009 10.2786 0.731801 0.0259123 -4.92067e-010 7.77806e-010 1.70537e-009 2.22167 -0.733487 -0.20892 -9.95306e-016 -3.9114e-012 -1.17932e-013 -34.1643 10.7558 -51.2084 27.1771 -26.9512 -62.4006 0.00213836 1.32008 -0.185558 -2.22155e-010 1.97171e-010 -9.48201e-010 -3.82329e-010 3.4057e-010 -1.63906e-009 -2.22168e-010 1.97167e-010 -9.48183e-010 -7.73091 5.47488 -0.417314 -2.22157e-010 1.97167e-010 -9.48198e-010 -2.90554 0.965183 -0.102902 -2.2217e-010 1.97165e-010 -9.48191e-010 -10.2786 0.731801 -0.0259123 -2.22155e-010 1.97169e-010 -9.48206e-010 -2.22167 -0.733487 0.20892 -2.03217e-016 0 -3.88251e-019 -21.9388 -56.4935 -28.1745 -4.27245 78.9497 5.10568 -5.52862 -26.3882 -10.5246 2.03217e-016 0 3.88251e-019 27.4744 -55.8515 29.9672 3.04256 75.6123 -3.85912 0.929655 -23.057 1.75028 
47.4889 62.3753 -24.3409 10.236 -0.364693 -87.5995 0.432432 20.4009 -3.46595 -1.97483 -11.1425 -1.1085 2.61299 2.42411 0.413528 0.62619 -30.8678 0.0872378 -0 0 0 -0 0 0 -3.19478e-014 -4.23555e-012 -1.52193e-013 35.979 7.85214 53.726 -27.0527 -26.5149 61.7004 -0.399334 17.6789 2.56744 -5.50856e-010 1.16975e-009 2.72593e-009 -9.1827e-010 2.00954e-009 4.71732e-009 -5.5085e-010 1.16975e-009 2.72593e-009 7.73091 5.47488 0.417314 -5.50856e-010 1.16975e-009 2.72594e-009 2.90554 0.965183 0.102902 -5.50849e-010 1.16975e-009 2.72594e-009 10.2786 0.731801 0.0259123 -5.50862e-010 1.16975e-009 2.72595e-009 2.22167 -0.733487 -0.20892 -3.20381e-014 -4.23555e-012 -1.52407e-013 -34.1777 10.7321 -51.2088 27.177 -26.951 -62.4005 0.00214383 1.32185 -0.185807 -5.52714e-010 4.27228e-010 -1.88514e-009 -9.53545e-010 7.37628e-010 -3.2574e-009 -5.52734e-010 4.27221e-010 -1.88511e-009 -7.73091 5.47488 -0.417314 -5.52716e-010 4.27224e-010 -1.88514e-009 -2.90554 0.965183 -0.102902 -5.52733e-010 4.27219e-010 -1.88512e-009 -10.2786 0.731801 -0.0259123 -5.52713e-010 4.27225e-010 -1.88514e-009 -2.22167 -0.733487 0.20892 -2.03217e-016 0 -3.88251e-019 -21.9698 -56.5402 -28.234 -4.28828 78.9871 5.12208 -5.53757 -26.4028 -10.5371 2.03217e-016 0 3.88251e-019 27.5323 -55.9053 30.0076 3.05009 75.64 -3.86626 0.92322 -23.0517 1.73671 
47.5045 62.3523 -24.3578 10.2707 -0.362657 -87.5768 0.421428 20.3838 -3.47532 -1.97872 -11.1529 -1.11191 2.59623 2.42954 0.407366 0.639454 -30.8928 0.0823538 -0 0 0 -0 0 0 -4.01221e-014 -4.29191e-012 -1.60519e-013 35.9758 7.85907 53.7424 -27.0526 -26.5147 61.6999 -0.398175 17.6542 2.56361 -5.06469e-010 1.1851e-009 2.73016e-009 -8.41444e-010 2.03621e-009 4.7238e-009 -5.06461e-010 1.1851e-009 2.73017e-009 7.73091 5.47488 0.417314 -5.06467e-010 1.1851e-009 2.73017e-009 2.90554 0.965183 0.102902 -5.06461e-010 1.1851e-009 2.73017e-009 10.2786 0.731801 0.0259123 -5.06473e-010 1.1851e-009 2.73018e-009 2.22167 -0.733487 -0.20892 -4.01895e-014 -4.29191e-012 -1.60717e-013 -34.1883 10.7105 -51.2012 27.1773 -26.9516 -62.4011 0.00213593 1.31953 -0.185481 -5.198e-010 4.62519e-010 -1.95006e-009 -8.96706e-010 7.9872e-010 -3.36955e-009 -5.19824e-010 4.62512e-010 -1.95004e-009 -7.73091 5.47488 -0.417314 -5.19802e-010 4.62516e-010 -1.95007e-009 -2.90554 0.965183 -0.102902 -5.19821e-010 4.6251e-010 -1.95005e-009 -10.2786 0.731801 -0.0259123 -5.19798e-010 4.62517e-010 -1.95007e-009 -2.22167 -0.733487 0.20892 -2.03217e-016 0 -3.88251e-019 -22.0136 -56.5919 -28.3039 -4.30538 79.0261 5.13968 -5.54503 -26.4155 -10.548 2.03217e-016 0 3.88251e-019 27.5892 -55.9639 30.0519 3.05724 75.6669 -3.87309 0.91647 -23.0441 1.72212 
47.5239 62.3256 -24.3768 10.3191 -0.367426 -87.5435 0.39727 20.3517 -3.49558 -1.97306 -11.1629 -1.1176 2.58542 2.43226 0.403265 0.641526 -30.9057 0.0782993 -0 0 0 -0 0 0 -8.76795e-015 -3.99108e-012 -1.26772e-013 35.9804 7.8694 53.7627 -27.0523 -26.5137 61.6986 -0.397568 17.6412 2.56161 -2.64602e-010 5.20146e-010 9.00468e-010 -4.46995e-010 8.96627e-010 1.56092e-009 -2.64595e-010 5.20145e-010 9.00472e-010 7.73091 5.47488 0.417314 -2.64601e-010 5.20144e-010 9.00474e-010 2.90554 0.965183 0.102902 -2.64595e-010 5.20145e-010 9.00473e-010 10.2786 0.731801 0.0259123 -2.64606e-010 5.20145e-010 9.00485e-010 2.22167 -0.733487 -0.20892 -8.78779e-015 -3.99108e-012 -1.26942e-013 -34.1947 10.6921 -51.1813 27.1784 -26.9543 -62.4031 0.00210038 1.30866 -0.183953 1.84983e-010 1.46869e-010 -4.37619e-010 3.21093e-010 2.54508e-010 -7.57238e-010 1.84963e-010 1.46862e-010 -4.37597e-010 -7.73091 5.47488 -0.417314 1.84981e-010 1.46867e-010 -4.37623e-010 -2.90554 0.965183 -0.102902 1.84965e-010 1.46861e-010 -4.37608e-010 -10.2786 0.731801 -0.0259123 1.84986e-010 1.46867e-010 -4.37631e-010 -2.22167 -0.733487 0.20892 -2.03217e-016 0 -3.88251e-019 -22.0939 -56.6621 -28.4084 -4.32841 79.0738 5.16326 -5.552 -26.4266 -10.5599 2.03217e-016 0 3.88251e-019 27.6463 -56.0468 30.1034 3.06553 75.6959 -3.88115 0.90868 -23.0301 1.70504 
47.5377 62.2979 -24.3959 10.3773 -0.378864 -87.502 0.361794 20.3088 -3.52416 -1.96 -11.1721 -1.12517 2.57817 2.43324 0.400591 0.635085 -30.911 0.074742 -0 0 0 -0 0 0 4.6693e-014 -3.40329e-012 -6.53815e-014 35.9897 7.88145 53.787 -27.0515 -26.5115 61.6955 -0.397309 17.6357 2.56075 1.16765e-010 -6.04129e-010 -2.16852e-009 1.7258e-010 -1.03038e-009 -3.74384e-009 1.16772e-010 -6.04129e-010 -2.16852e-009 7.73091 5.47488 0.417314 1.16766e-010 -6.04129e-010 -2.16852e-009 2.90554 0.965183 0.102902 1.16772e-010 -6.04128e-010 -2.16852e-009 10.2786 0.731801 0.0259123 1.16762e-010 -6.04128e-010 -2.16851e-009 2.22167 -0.733487 -0.20892 4.67389e-014 -3.4033e-012 -6.55151e-014 -34.1998 10.6754 -51.1519 27.1802 -26.9587 -62.4068 0.00204338 1.29084 -0.181446 1.3425e-009 -4.00606e-010 2.12707e-009 2.32117e-009 -6.89547e-010 3.67257e-009 1.34249e-009 -4.0061e-010 2.12709e-009 -7.73091 5.47488 -0.417314 1.3425e-009 -4.00607e-010 2.12707e-009 -2.90554 0.965183 -0.102902 1.34249e-009 -4.00611e-010 2.12708e-009 -10.2786 0.731801 -0.0259123 1.34251e-009 -4.00607e-010 2.12706e-009 -2.22167 -0.733487 0.20892 -2.03217e-016 0 -3.88251e-019 -22.2048 -56.7444 -28.5409 -4.35563 79.1278 5.19105 -5.55819 -26.4368 -10.5716 2.03217e-016 0 3.88251e-019 27.7007 -56.1464 30.1591 3.07433 75.7256 -3.88977 0.900031 -23.0112 1.68604 
47.5423 62.2828 -24.4145 10.4248 -0.391296 -87.4713 0.32501 20.2743 -3.54582 -1.94844 -11.1787 -1.13112 2.57208 2.43384 0.398777 0.625273 -30.9126 0.0717669 -0 0 0 -0 0 0 1.00368e-013 -2.67705e-012 -1.32937e-015 36.0012 7.89321 53.812 -27.051 -26.5098 61.6933 -0.397396 17.6376 2.56104 4.68953e-010 -1.67015e-009 -5.08322e-009 7.43812e-010 -2.8576e-009 -8.78194e-009 4.68958e-010 -1.67015e-009 -5.08323e-009 7.73091 5.47488 0.417314 4.68953e-010 -1.67015e-009 -5.08323e-009 2.90554 0.965183 0.102902 4.68959e-010 -1.67015e-009 -5.08322e-009 10.2786 0.731801 0.0259123 4.68949e-010 -1.67015e-009 -5.08321e-009 2.22167 -0.733487 -0.20892 1.00473e-013 -2.67706e-012 -1.43381e-015 -34.2047 10.6591 -51.1201 27.1818 -26.9626 -62.4101 0.0019937 1.2749 -0.179206 2.42322e-009 -9.17845e-010 4.55077e-009 4.1885e-009 -1.58153e-009 7.85896e-009 2.42321e-009 -9.17846e-010 4.55079e-009 -7.73091 5.47488 -0.417314 2.42322e-009 -9.17846e-010 4.55077e-009 -2.90554 0.965183 -0.102902 2.42321e-009 -9.17847e-010 4.55077e-009 -10.2786 0.731801 -0.0259123 2.42322e-009 -9.17846e-010 4.55076e-009 -2.22167 -0.733487 0.20892 -2.03217e-016 0 -3.88251e-019 -22.2977 -56.8129 -28.6524 -4.37798 79.1742 5.21377 -5.56156 -26.4451 -10.578 2.03217e-016 0 3.88251e-019 27.7523 -56.2247 30.214 3.0807 75.7501 -3.89599 0.892026 -22.996 1.66802 
47.5318 62.2755 -24.4306 10.441 -0.398665 -87.4704 0.296991 20.2676 -3.54533 -1.94729 -11.1809 -1.13193 2.56472 2.43547 0.397259 0.617229 -30.9145 0.0694584 -0 0 0 -0 0 0 1.26366e-013 -1.96085e-012 4.0403e-014 36.0122 7.90265 53.8348 -27.0511 -26.5105 61.6947 -0.397826 17.6468 2.56246 6.2328e-010 -2.16034e-009 -6.45003e-009 9.9323e-010 -3.69784e-009 -1.11448e-008 6.23283e-010 -2.16034e-009 -6.45004e-009 7.73091 5.47488 0.417314 6.23279e-010 -2.16034e-009 -6.45004e-009 2.90554 0.965183 0.102902 6.23285e-010 -2.16034e-009 -6.45004e-009 10.2786 0.731801 0.0259123 6.23276e-010 -2.16034e-009 -6.45003e-009 2.22167 -0.733487 -0.20892 1.26496e-013 -1.96085e-012 4.03036e-014 -34.2103 10.642 -51.0932 27.1822 -26.9636 -62.4111 0.00197765 1.26972 -0.178477 2.89758e-009 -1.14279e-009 5.64025e-009 5.00806e-009 -1.96952e-009 9.74106e-009 2.89758e-009 -1.14279e-009 5.64027e-009 -7.73091 5.47488 -0.417314 2.89758e-009 -1.14279e-009 5.64025e-009 -2.90554 0.965183 -0.102902 2.89758e-009 -1.14279e-009 5.64025e-009 -10.2786 0.731801 -0.0259123 2.89759e-009 -1.14279e-009 5.64023e-009 -2.22167 -0.733487 0.20892 -2.03217e-016 0 -3.88251e-019 -22.3235 -56.8422 -28.6932 -4.38611 79.1994 5.22184 -5.56004 -26.4504 -10.5743 2.03217e-016 0 3.88251e-019 27.8005 -56.2434 30.2628 3.08166 75.7638 -3.89682 0.886156 -22.9929 1.65388 
47.511 62.2733 -24.4451 10.4055 -0.398077 -87.5216 0.281213 20.3064 -3.50602 -1.96317 -11.1758 -1.12372 2.55551 2.43769 0.396128 0.610417 -30.916 0.0677573 -0 0 0 -0 0 0 1.10452e-013 -1.22117e-012 4.91584e-014 36.0228 7.90923 53.855 -27.0522 -26.5141 61.7003 -0.398909 17.6699 2.56604 4.40714e-010 -1.70444e-009 -5.32719e-009 6.92881e-010 -2.91605e-009 -9.20472e-009 4.40717e-010 -1.70444e-009 -5.3272e-009 7.73091 5.47488 0.417314 4.40713e-010 -1.70444e-009 -5.3272e-009 2.90554 0.965183 0.102902 4.4072e-010 -1.70444e-009 -5.3272e-009 10.2786 0.731801 0.0259123 4.4071e-010 -1.70443e-009 -5.32719e-009 2.22167 -0.733487 -0.20892 1.1056e-013 -1.22117e-012 4.90268e-014 -34.2163 10.6232 -51.0724 27.1806 -26.9598 -62.4082 0.00201216 1.28105 -0.18007 2.40035e-009 -8.87826e-010 4.57332e-009 4.14877e-009 -1.52999e-009 7.89888e-009 2.40035e-009 -8.87824e-010 4.57333e-009 -7.73091 5.47488 -0.417314 2.40035e-009 -8.87825e-010 4.57331e-009 -2.90554 0.965183 -0.102902 2.40035e-009 -8.87824e-010 4.57331e-009 -10.2786 0.731801 -0.0259123 2.40036e-009 -8.87825e-010 4.5733e-009 -2.22167 -0.733487 0.20892 -2.03217e-016 0 -3.88251e-019 -22.235 -56.8088 -28.6131 -4.36965 79.1899 5.20466 -5.55094 -26.4499 -10.5549 2.03217e-016 0 3.88251e-019 27.8474 -56.1625 30.3073 3.07317 75.76 -3.88822 0.883293 -23.0103 1.64484 
47.4804 62.2716 -24.4608 10.3343 -0.392626 -87.6088 0.271925 20.3762 -3.4402 -1.98992 -11.1653 -1.10936 2.54573 2.44003 0.395606 0.602732 -30.9155 0.0666461 -0 0 0 -0 0 0 6.88784e-014 -4.0319e-013 3.95923e-014 36.0342 7.91402 53.8742 -27.0538 -26.5195 61.7088 -0.400549 17.7047 2.57144 4.257e-011 -6.55901e-010 -2.64799e-009 4.02918e-011 -1.11823e-009 -4.57465e-009 4.25727e-011 -6.55895e-010 -2.648e-009 7.73091 5.47488 0.417314 4.25689e-011 -6.55895e-010 -2.648e-009 2.90554 0.965183 0.102902 4.25757e-011 -6.55895e-010 -2.648e-009 10.2786 0.731801 0.0259123 4.25662e-011 -6.55894e-010 -2.64799e-009 2.22167 -0.733487 -0.20892 6.89336e-014 -4.03192e-013 3.94028e-014 -34.2224 10.6036 -51.0541 27.1777 -26.9527 -62.4028 0.00208113 1.30303 -0.183161 1.28863e-009 -3.31963e-010 2.15436e-009 2.22768e-009 -5.71615e-010 3.72169e-009 1.28863e-009 -3.31962e-010 2.15437e-009 -7.73091 5.47488 -0.417314 1.28863e-009 -3.31962e-010 2.15435e-009 -2.90554 0.965183 -0.102902 1.28863e-009 -3.31962e-010 2.15435e-009 -10.2786 0.731801 -0.0259123 1.28864e-009 -3.31961e-010 2.15434e-009 -2.22167 -0.733487 0.20892 -2.03217e-016 0 -3.88251e-019 -22.0703 -56.7317 -28.4511 -4.33625 79.1562 5.17004 -5.53607 -26.445 -10.5239 2.03217e-016 0 3.88251e-019 27.8921 -56.0122 30.349 3.05792 75.7436 -3.8729 0.882473 -23.0414 1.6392 
